<?xml version="1.0" standalone="no"?>
<!DOCTYPE svg PUBLIC "-//W3C//DTD SVG 20010904//EN"
 "http://www.w3.org/TR/2001/REC-SVG-20010904/DTD/svg10.dtd">
<svg version="1.0" xmlns="http://www.w3.org/2000/svg"
 width="1080.000000pt" height="1080.000000pt" viewBox="0 0 1080.000000 1080.000000"
 preserveAspectRatio="xMidYMid meet">
<metadata>
Created by potrace 1.14, written by Peter Selinger 2001-2017
</metadata>
<g transform="translate(0.000000,1080.000000) scale(0.100000,-0.100000)"
fill="#000000" stroke="none">
<path d="M5353 10610 c-164 -25 -326 -109 -416 -216 -73 -86 -100 -138 -122
-237 -11 -52 -28 -93 -49 -122 -123 -171 -160 -218 -229 -287 -96 -96 -143
-187 -159 -305 -13 -95 -40 -153 -113 -233 -33 -37 -63 -84 -76 -118 -19 -52
-21 -70 -16 -198 5 -120 3 -153 -14 -215 -40 -154 -43 -184 -30 -269 16 -95
10 -139 -29 -231 -63 -149 -60 -282 13 -439 105 -231 140 -309 148 -336 9 -31
-1 -80 -36 -174 -29 -78 -35 -148 -24 -267 13 -141 5 -174 -60 -245 -27 -29
-74 -89 -105 -133 -66 -91 -65 -91 -171 -134 -104 -43 -159 -75 -215 -126 -52
-49 -74 -61 -139 -81 -81 -24 -194 -120 -336 -284 -163 -190 -224 -291 -303
-505 -64 -173 -88 -260 -153 -560 -33 -154 -71 -329 -84 -390 -35 -162 -44
-263 -57 -651 -14 -423 -6 -557 45 -769 41 -167 49 -217 41 -250 -7 -27 4 -25
-249 -50 -292 -30 -468 -97 -697 -266 -213 -158 -439 -357 -524 -464 -78 -96
-165 -268 -194 -380 -75 -297 -21 -605 148 -845 25 -36 115 -135 199 -221 84
-86 159 -171 167 -190 13 -30 12 -36 -4 -59 -52 -74 -33 -115 72 -155 l73 -29
570 -6 c675 -7 6460 -3 6685 5 212 7 274 19 319 60 33 31 36 37 37 97 2 90 26
130 170 280 192 200 299 376 351 577 22 86 24 111 20 241 -5 156 -19 228 -76
376 -56 146 -124 248 -250 374 -273 274 -470 418 -706 515 -139 58 -231 76
-415 82 -91 3 -182 9 -204 15 l-39 9 7 57 c4 31 17 99 31 151 13 53 28 123 34
156 56 302 15 1098 -75 1480 -19 83 -53 231 -74 330 -81 379 -139 530 -297
776 -92 143 -149 214 -273 343 -104 107 -206 182 -397 294 -49 29 -79 55 -99
86 -19 29 -71 76 -144 131 -165 123 -195 150 -215 191 -15 32 -16 44 -5 96 6
33 11 101 12 151 0 79 -5 105 -32 182 -46 130 -52 153 -45 178 4 12 44 99 90
192 111 227 130 290 128 425 -1 58 -11 161 -22 230 -12 69 -21 158 -21 199 0
79 -18 163 -52 238 -19 42 -21 67 -22 208 -1 155 -2 162 -29 214 -16 29 -57
84 -92 121 -64 68 -85 111 -85 177 0 54 -28 179 -49 220 -10 21 -44 67 -75
103 -31 36 -75 90 -98 120 -23 30 -70 85 -104 121 -47 49 -64 75 -69 105 -33
190 -55 236 -169 348 -131 128 -362 211 -523 186z m183 -207 c78 -27 155 -76
217 -141 61 -65 77 -95 77 -146 0 -66 -70 -93 -142 -55 -24 13 -50 28 -58 34
-43 32 -117 50 -210 49 -103 0 -148 -14 -254 -82 -88 -56 -166 -37 -166 39 0
85 83 202 177 249 141 71 257 88 359 53z m-24 -429 c51 -26 118 -94 118 -120
0 -33 -14 -37 -57 -14 -86 44 -230 47 -330 5 -64 -27 -72 4 -16 66 21 23 56
50 78 60 52 23 165 25 207 3z m439 -69 c46 -24 50 -29 47 -58 l-3 -32 -70 -6
c-38 -3 -91 -9 -117 -14 -47 -7 -48 -7 -48 19 0 37 26 74 69 96 48 25 63 25
122 -5z m-898 -33 c22 -22 27 -35 22 -51 -6 -21 -11 -22 -123 -19 -109 3 -117
4 -120 24 -4 26 32 71 61 78 12 2 46 3 76 1 44 -3 60 -10 84 -33z m445 -154
c63 -16 102 -40 140 -87 38 -47 47 -103 19 -109 -10 -2 -26 3 -36 12 -28 25
-130 56 -185 56 -62 0 -153 -22 -219 -52 -41 -19 -50 -20 -58 -8 -12 19 -2 79
17 97 8 8 14 19 14 24 0 14 71 55 115 66 55 15 137 15 193 1z m-532 -46 c48
-26 114 -108 114 -142 0 -31 -22 -45 -48 -31 -9 4 -50 16 -90 26 -70 18 -74
18 -125 0 -85 -30 -126 -54 -174 -101 -25 -25 -46 -44 -48 -42 -41 49 -30 147
24 207 21 24 27 28 92 65 81 46 191 53 255 18z m1108 13 c57 -17 115 -69 155
-139 19 -34 21 -47 15 -109 l-7 -71 -31 37 c-17 20 -37 37 -44 37 -7 0 -31 12
-55 27 -104 67 -191 80 -284 45 -55 -21 -73 -16 -73 21 0 71 133 162 243 166
16 1 52 -6 81 -14z m-540 -282 c56 -18 126 -83 126 -118 0 -30 -16 -35 -62
-19 -58 20 -195 27 -268 14 -135 -23 -137 -23 -144 -5 -10 27 25 76 75 108 78
48 166 55 273 20z m-515 -84 c17 -12 31 -31 31 -41 0 -21 -18 -29 -120 -53
-41 -10 -97 -28 -125 -41 -108 -49 -122 -53 -140 -40 -52 38 56 158 175 197
47 16 145 4 179 -22z m1030 1 c95 -49 186 -210 119 -210 -13 0 -41 13 -64 28
-22 15 -63 42 -90 60 -45 31 -54 33 -109 29 -77 -5 -125 8 -125 33 0 21 56 71
92 82 36 11 138 -2 177 -22z m-417 -190 c113 -11 336 -77 467 -137 132 -59
309 -206 373 -308 57 -91 74 -219 34 -264 -7 -9 -17 -26 -20 -37 -4 -12 -15
-29 -25 -38 -17 -16 -19 -14 -36 31 -10 27 -23 54 -29 62 -6 7 -17 28 -26 45
-15 31 -109 126 -125 126 -5 0 -22 11 -40 24 -71 54 -279 150 -415 190 -78 24
-326 38 -520 31 -152 -6 -174 -9 -275 -41 -116 -37 -313 -130 -355 -168 -14
-12 -37 -30 -52 -39 -61 -38 -178 -203 -178 -252 0 -27 -30 -29 -55 -4 -24 24
-55 120 -55 170 0 29 20 91 51 157 53 115 289 289 496 366 115 43 256 78 343
86 114 11 344 11 442 0z m786 -40 c45 -32 72 -83 72 -136 0 -59 -3 -57 -162
80 -32 27 -35 47 -12 70 23 24 56 19 102 -14z m-1923 -10 c8 -7 15 -20 15 -30
0 -21 -132 -120 -160 -120 -43 0 -14 135 34 159 25 13 91 7 111 -9z m855 -399
c19 -37 10 -60 -45 -116 -80 -83 -84 -123 -19 -195 92 -102 261 -66 280 58 8
53 -11 97 -62 142 -46 40 -68 85 -54 110 6 11 16 20 23 20 33 0 260 -32 313
-43 159 -35 334 -156 417 -287 32 -52 34 -61 41 -175 3 -69 2 -148 -4 -185 -6
-36 -17 -110 -26 -165 -30 -201 -57 -342 -74 -380 -5 -11 -19 -45 -31 -75 -55
-139 -120 -239 -222 -342 -63 -63 -197 -158 -225 -158 -5 0 -23 -7 -41 -16
-43 -22 -229 -38 -278 -25 -21 6 -52 11 -70 11 -52 0 -200 68 -284 131 -92 68
-195 202 -239 309 -12 30 -28 69 -35 85 -15 36 -67 205 -90 295 -10 36 -25 90
-34 120 -20 69 -22 394 -3 480 16 73 76 156 155 216 69 51 208 123 277 143 25
7 65 20 90 29 42 15 125 28 197 31 23 1 35 -5 43 -18z m113 -128 c21 -20 37
-41 37 -46 0 -6 -23 -7 -57 -4 -102 11 -144 -35 -86 -95 31 -32 96 -40 107
-13 3 8 14 15 25 15 14 0 19 -5 15 -15 -4 -8 -14 -15 -24 -15 -10 0 -23 -7
-30 -15 -17 -21 -42 -19 -90 6 -85 45 -92 96 -24 169 29 31 55 50 69 50 12 0
38 -16 58 -37z m67 -99 c0 -21 -4 -33 -10 -29 -5 3 -10 19 -10 36 0 16 5 29
10 29 6 0 10 -16 10 -36z m-85 7 c0 -8 -8 -19 -17 -25 -22 -13 -44 5 -34 29 7
20 51 16 51 -4z m1251 -184 c10 -39 10 -47 -2 -47 -22 0 -47 47 -40 76 10 37
28 24 42 -29z m-2312 -153 c21 -20 20 -33 -5 -96 -19 -46 -21 -67 -16 -158 3
-61 12 -121 21 -142 18 -42 21 -88 6 -88 -26 0 -90 103 -145 232 -23 55 -20
162 7 207 11 20 28 42 36 49 22 17 77 15 96 -4z m2170 -14 c14 -17 31 -50 37
-73 15 -57 5 -152 -21 -184 -11 -14 -20 -32 -20 -39 0 -24 -67 -134 -81 -134
-5 0 -9 11 -9 25 0 18 -5 25 -20 25 -36 0 -42 32 -24 127 9 49 18 128 19 176
2 97 7 107 62 107 23 0 38 -8 57 -30z m-2027 -548 c32 -20 39 -117 9 -141 -48
-40 -120 -3 -120 62 0 62 65 108 111 79z m1842 -7 c32 -16 41 -33 41 -79 0
-66 -57 -95 -106 -53 -39 34 -39 90 0 123 32 28 29 28 65 9z m-1791 -277 c7
-9 7 -31 2 -63 -29 -169 -40 -265 -44 -380 -4 -138 -15 -180 -61 -241 -23 -30
-70 -50 -80 -33 -7 10 -49 -2 -101 -29 -22 -11 -57 -24 -78 -27 -37 -7 -38 -7
-31 16 9 30 50 74 145 154 41 35 84 80 94 99 l19 36 -26 62 c-59 140 -68 199
-41 270 37 96 164 181 202 136z m1803 -25 c92 -84 104 -204 35 -365 -9 -21
-16 -49 -16 -64 0 -43 38 -106 87 -144 157 -122 231 -198 216 -224 -7 -12 -24
-8 -98 23 -101 41 -216 103 -234 125 -24 29 -41 123 -51 281 -6 88 -13 167
-16 175 -3 8 -11 54 -18 102 -12 83 -11 88 8 108 28 28 40 26 87 -17z m-1461
-503 c79 -97 210 -207 326 -274 80 -46 95 -51 160 -54 55 -3 86 1 131 17 71
25 95 27 67 6 -19 -14 -17 -16 21 -19 11 0 20 -8 20 -16 0 -16 -3 -16 -48 -5
-21 6 -27 4 -27 -8 0 -9 -6 -20 -12 -24 -7 -4 -18 -18 -25 -30 -20 -35 4 -45
104 -42 48 2 100 7 114 13 23 8 30 5 57 -25 l30 -34 -24 -7 c-22 -6 -46 -29
-131 -127 -22 -24 -29 -41 -18 -41 16 0 115 31 139 44 16 8 33 13 38 10 14 -9
9 -57 -11 -109 -16 -41 -168 -346 -210 -421 -145 -259 -281 -468 -382 -589
-151 -181 -351 -360 -468 -420 -174 -88 -409 -37 -524 114 -61 80 -136 230
-168 336 -29 99 -57 220 -63 276 -9 81 -20 102 -41 75 -8 -11 -15 -30 -15 -43
0 -13 -6 -52 -14 -86 -33 -145 -43 -196 -90 -472 -44 -257 -46 -269 -51 -320
-3 -27 -12 -106 -20 -175 -8 -69 -20 -200 -26 -293 -13 -175 -26 -218 -48
-156 -26 74 -118 169 -164 169 -15 0 -12 -46 4 -56 5 -3 9 -16 9 -30 0 -14 5
-35 12 -47 6 -12 24 -76 39 -142 42 -179 43 -185 79 -276 71 -181 96 -237 138
-307 24 -40 42 -80 40 -90 -2 -11 -17 -19 -43 -23 -88 -15 -269 -122 -366
-216 -29 -28 -54 -44 -65 -41 -20 3 -94 121 -115 184 -7 21 -18 46 -24 54 -14
19 -55 119 -55 134 0 7 -9 32 -21 55 -24 50 -57 210 -66 320 -3 42 -12 92 -20
111 -12 31 -13 17 -8 -125 10 -291 18 -360 58 -480 38 -117 85 -238 133 -342
8 -17 14 -48 14 -70 0 -43 -32 -103 -55 -103 -20 0 -235 438 -260 530 -9 36
-23 85 -30 110 -79 269 -79 813 0 1215 7 39 18 104 24 145 16 102 26 158 51
270 12 52 27 133 35 180 13 75 42 196 88 355 16 57 94 232 114 256 7 8 13 19
13 24 0 18 110 173 171 241 111 123 241 222 388 296 88 43 208 89 271 101 14
3 59 15 100 26 41 11 113 29 160 41 47 11 112 29 145 39 95 30 181 44 235 39
l50 -5 0 31 c0 34 29 347 36 384 2 12 10 22 17 22 6 -1 41 -37 77 -80z m958
-88 c2 -7 -6 -12 -17 -12 -21 0 -27 11 -14 24 9 9 26 2 31 -12z m-58 -79 c0
-22 -2 -25 -10 -13 -13 20 -13 40 0 40 6 0 10 -12 10 -27z m46 -20 c-10 -10
-19 5 -10 18 6 11 8 11 12 0 2 -7 1 -15 -2 -18z m-122 -18 c-10 -8 -14 -15 -9
-15 14 0 -17 -20 -32 -20 -23 0 -14 18 20 38 36 21 51 20 21 -3z m56 -26 c0
-11 -4 -17 -10 -14 -5 3 -10 13 -10 21 0 8 5 14 10 14 6 0 10 -9 10 -21z m-65
-129 c-3 -5 -17 -10 -31 -10 -14 0 -22 4 -19 10 3 6 17 10 31 10 14 0 22 -4
19 -10z m62 -37 c-3 -10 -5 -4 -5 12 0 17 2 24 5 18 2 -7 2 -21 0 -30z m535
-37 l73 -12 -1 -44 c0 -45 -45 -223 -88 -355 -13 -38 -33 -101 -45 -140 -12
-38 -26 -79 -32 -90 -5 -11 -29 -81 -55 -155 -62 -182 -312 -687 -449 -908
-45 -72 -189 -266 -243 -327 -84 -96 -242 -256 -302 -306 -149 -125 -365 -283
-455 -333 -16 -9 -43 -25 -60 -36 -98 -62 -384 -180 -437 -180 -18 0 -68 48
-68 64 0 5 -9 19 -19 30 -11 12 -44 71 -75 131 l-57 110 30 25 c16 14 72 43
123 65 132 55 217 101 390 208 166 103 225 142 259 170 19 16 43 36 54 44 54
43 278 249 336 310 110 113 311 381 424 564 135 219 198 327 234 404 80 169
171 366 181 395 7 19 19 49 26 67 8 17 14 38 14 47 0 9 14 48 31 88 49 114 56
131 63 155 7 23 30 33 58 26 10 -2 51 -10 90 -17z m353 -56 c17 -5 62 -19 102
-31 104 -31 297 -127 378 -189 145 -110 271 -251 368 -412 26 -43 47 -80 47
-83 0 -3 13 -35 30 -70 32 -69 53 -126 69 -190 5 -22 19 -71 31 -110 11 -38
24 -90 29 -115 5 -25 19 -94 31 -155 12 -60 28 -141 36 -180 8 -38 19 -103 25
-144 5 -41 12 -78 15 -83 5 -8 16 -97 43 -343 6 -55 16 -143 22 -195 13 -112
7 -471 -10 -580 -14 -95 -39 -205 -56 -250 -7 -19 -23 -68 -35 -108 -13 -40
-27 -75 -31 -78 -5 -3 -9 -12 -9 -21 0 -25 -127 -282 -163 -329 -41 -55 -60
-56 -81 -4 -20 50 -20 99 -1 124 8 11 15 27 15 35 0 9 18 52 41 96 52 104 105
276 124 406 8 57 21 136 28 174 13 78 17 409 4 468 -14 64 -25 41 -32 -65 -29
-448 -64 -592 -210 -873 -75 -144 -81 -155 -101 -155 -8 0 -47 27 -87 61 -91
76 -166 122 -270 165 -45 18 -83 39 -85 47 -2 8 24 66 57 128 107 205 170 391
197 579 8 63 33 148 56 193 22 45 18 54 -19 41 -26 -9 -74 -62 -143 -160 l-35
-49 -7 110 c-10 141 -35 382 -53 510 -7 55 -19 136 -25 180 -43 311 -104 653
-143 800 -25 93 -48 60 -83 -120 -19 -96 -85 -308 -134 -435 -12 -30 -25 -66
-30 -80 -7 -23 -23 -62 -54 -135 -7 -16 -26 -61 -42 -99 -40 -97 -159 -330
-193 -380 -15 -23 -63 -95 -107 -160 -105 -158 -98 -148 -183 -251 -163 -196
-351 -379 -475 -465 -11 -8 -46 -33 -76 -56 -99 -74 -273 -164 -318 -164 -10
0 -37 -11 -62 -25 -148 -83 -351 -165 -410 -165 -10 0 -35 -6 -57 -14 -37 -13
-43 -12 -100 14 -33 16 -76 42 -95 59 -59 52 -131 100 -185 126 -29 14 -53 29
-53 33 0 5 23 14 52 20 58 14 156 61 207 100 19 14 84 50 145 80 209 104 355
202 620 416 118 95 347 321 431 425 249 307 344 452 482 731 77 158 109 228
139 310 13 36 28 74 34 85 21 45 78 193 93 240 25 82 78 318 117 520 34 175
51 239 69 253 16 13 53 11 116 -8z m-5 -1994 c0 -238 -25 -380 -115 -652 -51
-154 -220 -442 -369 -631 -23 -28 -70 -90 -106 -137 -36 -47 -70 -85 -76 -86
-6 0 -56 54 -110 119 -98 119 -163 171 -212 171 -12 0 -24 5 -27 10 -4 6 74
90 172 188 98 97 225 233 282 302 58 69 107 127 111 130 15 11 196 288 219
335 14 28 41 75 60 105 19 30 45 73 56 95 63 119 75 142 84 168 22 59 31 26
31 -117z m-2740 -1296 c11 -6 34 -32 52 -58 40 -59 142 -160 233 -234 103 -81
125 -105 125 -129 0 -20 -3 -21 -77 -14 -110 9 -171 -15 -265 -104 -117 -110
-190 -233 -232 -391 -14 -51 -29 -97 -34 -102 -15 -15 -96 9 -116 34 -16 20
-18 34 -12 105 3 48 17 111 31 151 42 116 31 143 -27 70 -40 -52 -52 -71 -77
-125 -11 -24 -26 -43 -33 -43 -7 0 -24 17 -38 36 -14 20 -32 44 -40 53 -31 35
-45 86 -45 171 0 84 1 88 54 193 105 212 298 372 474 396 5 1 17 -4 27 -9z
m3101 -53 c98 -61 206 -170 286 -290 60 -90 103 -189 103 -238 0 -19 -19 -66
-43 -104 -47 -76 -69 -105 -77 -105 -6 0 -31 33 -57 73 -48 75 -81 117 -94
117 -20 0 -16 -43 16 -141 41 -126 48 -225 18 -251 -24 -20 -90 -41 -108 -34
-8 3 -15 18 -15 33 -2 115 -106 333 -217 454 -75 82 -163 118 -291 119 -100 0
-96 14 46 147 67 63 152 150 188 195 l68 80 51 -4 c39 -3 69 -15 126 -51z
m-1794 -68 c34 -21 73 -83 73 -116 0 -10 -11 -42 -25 -70 -25 -54 -82 -100
-166 -136 -19 -8 -48 -30 -63 -48 -36 -43 -156 -284 -156 -314 0 -30 5 -32
352 -135 l137 -41 78 24 c43 14 107 32 143 41 290 75 288 74 251 158 -13 29
-34 80 -48 113 -60 150 -66 159 -134 193 -77 38 -130 85 -159 141 -40 80 -22
175 40 201 45 19 99 -9 169 -87 32 -35 91 -90 132 -123 41 -33 99 -80 129
-105 99 -80 341 -256 375 -272 42 -20 66 -14 144 38 53 36 66 41 89 33 28 -10
162 -166 162 -190 0 -7 -16 -20 -35 -28 -19 -8 -35 -20 -35 -25 0 -6 -6 -8
-14 -5 -9 3 -20 -4 -27 -18 -15 -28 -36 -45 -67 -53 -13 -3 -60 -23 -106 -45
-46 -22 -89 -40 -95 -40 -7 0 -30 -9 -51 -20 -159 -81 -433 -147 -709 -171
-161 -15 -498 -5 -611 16 -237 45 -235 45 -420 106 -212 70 -375 146 -446 207
-32 27 -51 63 -58 108 -5 39 -3 44 47 97 64 69 81 71 165 17 33 -22 72 -40 86
-40 22 0 51 19 246 160 321 233 374 276 432 349 51 62 99 101 127 101 7 0 29
-9 48 -21z m-2532 -368 c93 -20 217 -62 308 -106 48 -22 60 -36 136 -149 46
-68 81 -130 79 -137 -3 -9 -26 -14 -69 -15 -238 -7 -569 -83 -724 -166 -89
-48 -79 -59 27 -31 52 14 108 17 333 17 236 0 285 -3 390 -23 155 -28 370 -78
415 -96 19 -7 55 -16 80 -20 25 -3 83 -16 130 -29 115 -32 221 -56 246 -56 27
0 123 -59 170 -104 20 -20 42 -36 49 -36 7 0 20 -9 30 -20 10 -11 24 -20 32
-20 7 0 13 -4 13 -10 0 -5 -26 -8 -60 -7 -33 1 -60 5 -60 10 0 4 -5 7 -11 7
-6 0 -9 -6 -6 -14 3 -8 0 -19 -6 -24 -17 -13 -57 -22 -57 -12 0 5 -15 10 -32
12 -25 2 -32 7 -30 21 2 13 -4 17 -25 17 -15 0 -34 -4 -42 -9 -12 -8 -11 -14
9 -34 13 -13 31 -44 40 -68 21 -52 48 -60 107 -31 21 10 65 27 98 36 33 10 83
28 110 42 71 34 140 33 214 -5 31 -16 175 -88 321 -160 276 -136 404 -204 431
-227 8 -8 18 -14 21 -14 10 0 195 -126 278 -189 111 -85 240 -211 240 -235 0
-15 -5 -17 -27 -11 -15 3 -39 15 -54 26 -15 10 -33 19 -39 19 -7 0 -47 19 -89
42 -245 137 -400 171 -906 199 -286 16 -688 0 -1025 -41 -141 -17 -429 -32
-739 -37 -319 -5 -518 9 -651 49 -36 10 -90 25 -120 32 -58 14 -105 32 -130
51 -8 6 -46 24 -84 40 -38 16 -92 44 -118 62 -57 38 -118 54 -118 30 0 -8 -9
-17 -20 -20 -12 -3 -20 -14 -20 -25 0 -11 -7 -22 -15 -26 -8 -3 -15 -12 -15
-21 0 -8 7 -15 15 -15 8 0 15 5 15 10 0 25 27 6 42 -30 14 -33 14 -40 2 -40
-8 0 -14 5 -14 12 0 6 -3 9 -6 6 -19 -19 -132 64 -134 98 0 6 -14 24 -30 40
-17 16 -42 52 -55 79 -14 28 -29 57 -34 65 -37 64 -59 158 -73 322 -9 109 -8
140 6 212 34 170 100 295 230 433 169 178 358 277 621 322 33 6 69 12 80 15
59 11 237 4 320 -13z m5714 4 c177 -25 290 -63 421 -141 244 -144 407 -345
474 -584 25 -90 26 -139 5 -255 -11 -60 -24 -138 -29 -171 -5 -34 -19 -79 -31
-100 -12 -22 -29 -52 -37 -69 -7 -16 -24 -50 -36 -75 l-23 -45 -50 3 c-44 2
-51 0 -49 -15 2 -10 1 -12 -1 -5 -3 6 -12 12 -22 12 -10 0 -24 15 -33 36 -15
33 -15 39 -2 59 25 38 -1 38 -56 0 -27 -19 -53 -35 -57 -35 -5 0 -33 -17 -63
-38 -30 -21 -68 -45 -85 -54 -159 -81 -202 -100 -285 -126 -146 -46 -176 -52
-310 -67 -312 -33 -996 -17 -1410 35 -113 13 -244 44 -475 111 -22 6 -54 19
-71 29 -17 10 -47 21 -65 25 -19 4 -38 11 -44 15 -5 4 -35 15 -65 25 -53 17
-144 52 -205 80 -99 44 -183 86 -200 98 -24 18 -32 16 145 42 170 25 360 81
490 142 41 20 88 42 103 49 16 8 35 14 44 14 8 0 38 15 66 34 265 171 271 174
387 182 70 5 178 31 375 90 128 38 261 64 480 95 113 15 399 21 535 11 74 -6
136 -9 139 -6 22 21 -266 120 -444 152 -66 12 -176 28 -245 35 -105 10 -125
15 -128 30 -4 18 85 174 122 216 54 60 232 126 431 161 127 23 173 24 304 5z
m691 -1455 c0 -5 -2 -10 -4 -10 -3 0 -8 5 -11 10 -3 6 -1 10 4 10 6 0 11 -4
11 -10z m20 -29 c0 -5 -6 -14 -14 -20 -12 -10 -13 -8 -9 8 5 21 23 30 23 12z
m-7281 -33 c0 -31 -1 -31 -10 -10 -5 13 -7 28 -3 33 10 16 14 9 13 -23z"/>
<path d="M4981 8279 c-100 -17 -243 -109 -282 -180 -15 -30 7 -32 50 -4 23 14
43 25 46 25 4 0 27 10 53 21 37 17 68 22 144 23 96 1 98 1 128 -30 34 -34 53
-94 40 -128 -4 -11 -20 -32 -35 -46 -24 -23 -34 -25 -129 -25 -99 0 -105 1
-156 33 -61 38 -84 38 -88 0 -3 -22 6 -33 53 -68 81 -60 173 -78 281 -56 88
19 99 25 107 66 4 16 18 37 32 46 40 26 54 6 54 -74 -1 -37 6 -96 14 -132 8
-36 18 -82 21 -102 4 -21 10 -38 15 -38 15 0 31 103 31 198 -1 194 -41 344
-108 408 -61 57 -166 81 -271 63z"/>
<path d="M5716 8279 c-137 -23 -200 -84 -244 -238 -19 -67 -22 -334 -5 -366
11 -19 12 -19 21 5 5 14 24 81 42 150 43 171 38 161 68 120 55 -71 81 -88 155
-101 100 -16 196 0 253 44 39 30 84 97 84 125 0 22 -36 12 -66 -19 -40 -42
-69 -56 -137 -64 -91 -12 -181 2 -213 31 -22 21 -26 31 -21 64 7 51 41 96 95
121 63 31 143 22 269 -31 92 -38 138 -50 131 -32 -8 22 -149 136 -194 157 -89
42 -144 50 -238 34z"/>
<path d="M5260 7505 c-19 -23 46 -116 105 -150 58 -35 86 -28 146 34 92 95 62
153 -49 95 -38 -20 -61 -17 -107 11 -46 28 -77 32 -95 10z"/>
<path d="M5565 7288 c-91 -39 -198 -42 -291 -9 -63 23 -125 25 -132 4 -2 -7 3
-13 11 -13 8 0 32 -12 53 -27 84 -59 111 -68 208 -67 86 0 94 2 151 36 33 20
76 52 94 72 l35 36 -30 -1 c-16 0 -60 -14 -99 -31z"/>
<path d="M1780 1120 c0 -5 5 -10 11 -10 5 0 7 5 4 10 -3 6 -8 10 -11 10 -2 0
-4 -4 -4 -10z"/>
<path d="M1741 1064 c0 -11 3 -14 6 -6 3 7 2 16 -1 19 -3 4 -6 -2 -5 -13z"/>
<path d="M9095 1240 c-3 -5 1 -10 9 -10 9 0 16 5 16 10 0 6 -4 10 -9 10 -6 0
-13 -4 -16 -10z"/>
</g>
</svg>
